# xmcd CD database file
#
# Track frame offsets:
#	182
#	14582
#	24667
#	41992
#	58282
#	85182
#	96785
#	119102
#	139392
#	155322
#	167350
#	184987
#	199270
#	216055
#
# Disc length: 3059 seconds
#
# Revision: 1
# Processed by: cddbd v1.5.2PL0 Copyright (c) Steve Scherf et al.
# Submitted via: CDex 1.51
#
DISCID=cf0bf10e
DTITLE=Viva Salsa ! - CD4
DYEAR=1991
DGENRE=Salsa
TTITLE0=Ran Kan Kan
TTITLE1=Fancy Feet
TTITLE2=Pa' Lante
TTITLE3=Hit The Bongo
TTITLE4=Tito On Timbales
TTITLE5=Mambo Inn
TTITLE6=Ay Mi Cuba (feat. Celia Cruz)
TTITLE7=Oye como Va
TTITLE8=Work Song
TTITLE9=Mi Socio (Feat. La Lupe)
TTITLE10=T.P. Treat
TTITLE11=Pata Pata
TTITLE12=Pachito Eche (Feat. Celia Cruz)
TTITLE13=E Rey Del Timbal
EXTD=YEAR: 1991
EXTT0=
EXTT1=
EXTT2=
EXTT3=
EXTT4=
EXTT5=
EXTT6=
EXTT7=
EXTT8=
EXTT9=
EXTT10=
EXTT11=
EXTT12=
EXTT13=
PLAYORDER=
